<svg xmlns="http://www.w3.org/2000/svg" xmlns:xlink="http://www.w3.org/1999/xlink" viewBox="0 0 401.5 401.5"><defs><style>.cls-1{fill:none;}.cls-2{clip-path:url(#clip-path);}.cls-3{fill:#a1a2a2;}.cls-4{fill:#332d2b;}.cls-5{fill:#d12228;}</style><clipPath id="clip-path" transform="translate(-0.36)"><rect class="cls-1" y="159.32" width="402.22" height="82.86"/></clipPath></defs><title>Asset 3</title><g id="Layer_2" data-name="Layer 2"><g id="Layer_1-2" data-name="Layer 1"><path class="cls-1" d="M.36,0h401.5V401.5H.36Z" transform="translate(-0.36)"/><g id="layer1"><g id="g4435"><g class="cls-2"><g id="g4437"><g id="g4443"><path id="path4445" class="cls-3" d="M210.58,217.74a.83.83,0,0,1-.83.83H193.81a.83.83,0,0,1-.84-.83V206.21a.84.84,0,0,1,.84-.83h15.94a.83.83,0,0,1,.83.83Zm-.69-15.81H193.66a4.27,4.27,0,0,0-4.26,4.26v11.58a4.27,4.27,0,0,0,4.26,4.26h16.23a4.27,4.27,0,0,0,4.26-4.26V206.19a4.27,4.27,0,0,0-4.26-4.26" transform="translate(-0.36)"/></g><g id="g4447"><path id="path4449" class="cls-4" d="M23.73,184.6v14.9H20V179.39h3.18L38.27,194V179.39h3.67V199.5H39Z" transform="translate(-0.36)"/></g><g id="g4451"><path id="path4453" class="cls-4" d="M61.06,184.6v14.9H57.34V179.39h3.18L75.6,194V179.39h3.68V199.5H76.37Z" transform="translate(-0.36)"/></g><g id="g4455"><path id="path4457" class="cls-4" d="M138.43,184.6v14.9h-3.72V179.39h3.18L153,194V179.39h3.68V199.5h-2.9Z" transform="translate(-0.36)"/></g><g id="g4459"><path id="path4461" class="cls-4" d="M50.81,179.39h.69V199.5H47.78V179.39Z" transform="translate(-0.36)"/></g><g id="g4463"><path id="path4465" class="cls-4" d="M104.63,179.39h.69v3.46h-9V199.5H92.47V182.85h-9v-3.46Z" transform="translate(-0.36)"/></g><g id="g4467"><path id="path4469" class="cls-4" d="M128.49,179.39h.69v3.46h-16v4.51h12.35v3.46H113.22V196h16v3.46H109.54V179.39Z" transform="translate(-0.36)"/></g><g id="g4471"><path id="path4473" class="cls-4" d="M177.35,196H165.91V182.85h11.44c3.58,0,4.85,3.55,4.85,6.59s-1.27,6.59-4.85,6.59m6.11-13.7a7.5,7.5,0,0,0-6.22-2.94H162.32V199.5h14.92a7.5,7.5,0,0,0,6.22-2.94,13.21,13.21,0,0,0,0-14.23" transform="translate(-0.36)"/></g><g id="g4475"><path id="path4477" class="cls-4" d="M210.58,195.21a.83.83,0,0,1-.83.83H193.81a.84.84,0,0,1-.84-.83V183.68a.83.83,0,0,1,.84-.83h15.94a.83.83,0,0,1,.83.83Zm-.69-15.82H193.66a4.27,4.27,0,0,0-4.26,4.26v11.59a4.27,4.27,0,0,0,4.26,4.26h16.23a4.27,4.27,0,0,0,4.26-4.26V183.65a4.27,4.27,0,0,0-4.26-4.26" transform="translate(-0.36)"/></g><g id="g4479"><path id="path4481" class="cls-4" d="M330.89,213.59c3.86,1.53,12,2.76,18.37,2.76,7,0,9.86-2.39,9.86-5.39,0-2.69-2.68-4.27-10.38-7.09-10.28-3.8-17.82-6.79-17.82-13.54,0-7,9.08-11.11,22.91-11.11a64.35,64.35,0,0,1,14.7,1.34l0,6.63c-4.63-.88-8.74-2.39-15.12-2.39-6.83,0-9.74,2.17-9.74,4.4,0,3.25,4.48,4.8,12.35,7.61,11,3.92,17.05,6.95,17.05,13.56,0,6.8-7.63,11.71-24.84,11.71a101.38,101.38,0,0,1-17.37-1.34Z" transform="translate(-0.36)"/></g><g id="g4483"><path id="path4485" class="cls-4" d="M294.24,185.09h-8.19v31h8.19c12.58,0,20.51-5.38,20.51-15.44s-7.93-15.57-20.51-15.57m22,33.9c-4.06,1.83-11.72,3-18.43,3h-25.6V179.31h25.6c6.71,0,14.37,1.18,18.43,3,9.87,4.46,13.09,11.58,13.09,18.34s-3.19,13.87-13.09,18.33" transform="translate(-0.36)"/></g><g id="g4487"><path id="path4489" class="cls-5" d="M254.26,198.64s11.94-1.92,11.94-9.35C266.2,182,253.48,179,240,179a122.45,122.45,0,0,0-20.25,1.49v6.61a71.3,71.3,0,0,1,18.07-2.48c7.76,0,13.68,2.31,13.68,5.58,0,3.94-5.85,6.19-18.45,6.19h-5.79v5.95h5.38c13.27,0,20.82,2,20.82,6.87,0,4.34-6.75,7-15.15,7a72.58,72.58,0,0,1-19.48-3.07v7.12a116.22,116.22,0,0,0,22.45,1.84c14.31,0,26.75-4.6,26.75-12.7,0-6.8-8.62-10.79-13.72-10.79" transform="translate(-0.36)"/></g><g id="g4491"><path id="path4493" class="cls-4" d="M376.58,216.17h-1.35v-.72h3.58v.72h-1.37v4h-.86Z" transform="translate(-0.36)"/></g><g id="g4495"><path id="path4497" class="cls-4" d="M383.36,218.25c0-.61-.07-1.35-.06-2h0c-.16.57-.35,1.21-.56,1.81l-.7,2h-.66l-.63-2c-.18-.61-.35-1.25-.48-1.84h0c0,.61-.05,1.37-.09,2l-.1,1.91h-.81l.32-4.74h1.13l.62,1.9c.17.56.32,1.12.44,1.65h0c.13-.52.29-1.1.47-1.65l.65-1.9H384l.27,4.74h-.84Z" transform="translate(-0.36)"/></g></g></g></g></g></g></g></svg>