<svg xmlns="http://www.w3.org/2000/svg" viewBox="0 0 401.5 401.5"><defs><style>.cls-1{fill:none;}.cls-2{fill:#e60012;}</style></defs><title>Asset 4</title><g id="Layer_2" data-name="Layer 2"><g id="Layer_1-2" data-name="Layer 1"><path class="cls-1" d="M0,0H401.5V401.5H0Z"/><path class="cls-2" d="M178.66,324.25H187V287.13h-8.29Zm-43.07-60.39L145.37,277h3.84V257.3h-4v13l-9.66-12.87h-4v19.68h4Zm44.31-6.56H163.19v4.21h6.31V277h4.21V261.51h6.19ZM154.28,314l-7.92-27H139.8L132,313.86,124.83,287h-8l10.52,37.12h8.91l6.93-24.5,6.93,24.5H159L169.5,287h-8Zm55.81-80.68h24.26A40.35,40.35,0,0,0,274.69,193V116.23a40.35,40.35,0,0,0-40.34-40.35H210a1,1,0,0,0-1,1V232.18a1.11,1.11,0,0,0,1.11,1.12ZM240,146.55a16,16,0,1,1-16,16A16,16,0,0,1,240,146.55ZM116.78,257.3h-4.33V277h4.33Zm-32.91,6.56L93.64,277h3.84V257.3h-4v13l-9.65-12.87h-4v19.68h4ZM95.5,301.73h-.25c-4.58-.74-8.41-1.48-8.79-4.08a3.47,3.47,0,0,1,.62-2.11c1.24-1.48,4.09-2.1,8.29-2.1a31.44,31.44,0,0,1,11.39,2.6l2.6-6.44A41.67,41.67,0,0,0,95,286.76c-8,0-16.58,4-16.58,11.14,0,5.81,4.08,8.91,14.73,10.76,7.55,1.24,11.63,2,11.51,5.2-.13,1.73-1.49,4.7-9.9,4.7a26.12,26.12,0,0,1-13.25-3.46l-3.46,6.31a36.17,36.17,0,0,0,16.21,4c11.76,0,18.07-4.09,18.07-11.88C112.45,307.92,109.73,304.21,95.5,301.73Zm46.28-178.57a14.85,14.85,0,1,0,14.85-14.85A14.74,14.74,0,0,0,141.78,123.16ZM209.6,273.39H198.34v-4.58h10.39v-3.59H198.34V261H209.6v-3.59H194.25v19.68H209.6Zm92.07-16.7a10.52,10.52,0,1,0,10.52,10.51A10.67,10.67,0,0,0,301.67,256.69Zm0,16.58a6.07,6.07,0,1,1,6.06-6.07A6.07,6.07,0,0,1,301.67,273.27Zm1.24,28.46H285.58v-14.6h-7.67v37.12h7.67V309.4h17.33v14.85h7.67V287.13h-7.67Zm10.76,18.69h1.61v3.83h.87v-3.83h1.48v-.87h-4Zm8.54-1L321,322.89l-1.24-3.46h-1.36v4.7h.86v-3.59l1.24,3.59h.87l1.23-3.59v3.59h.87v-4.7Zm-68.93-25.25A11.74,11.74,0,0,1,263.43,300l6.06-5.2A19.8,19.8,0,1,0,253,325.62a19.55,19.55,0,0,0,16.45-8.79l-6.06-5.2a12,12,0,0,1-10.15,5.82,11.7,11.7,0,0,1-11.75-11.51,11.83,11.83,0,0,1,11.75-11.76Zm-57.29.75h11.88v29.2h8v-29.2h11.63V287H196.11v7.92ZM243.51,277V257.3h-4v13l-9.66-12.87h-4v19.68h4V264l9.78,13.12h3.84ZM192,75.88H157.62a40.35,40.35,0,0,0-40.34,40.35V193a40.35,40.35,0,0,0,40.34,40.35H192a1.12,1.12,0,0,0,1.11-1.12V77A1.12,1.12,0,0,0,192,75.88ZM180.52,220.67h-22.9a27,27,0,0,1-19.55-8.16A27.53,27.53,0,0,1,129.9,193V116.23a27,27,0,0,1,8.17-19.56,27.56,27.56,0,0,1,19.55-8.16h22.9Zm87.74,36.63h-8.17V277h8.17a9.84,9.84,0,1,0,0-19.68Zm.24,15.6h-4.33V261.51h4.33a5.7,5.7,0,1,1,0,11.39Z"/></g></g></svg>