<svg xmlns="http://www.w3.org/2000/svg" xmlns:xlink="http://www.w3.org/1999/xlink" viewBox="0 0 401.5 401.5"><defs><style>.cls-1{fill:none;}.cls-2{fill:url(#linear-gradient);}.cls-3{fill:url(#linear-gradient-2);}.cls-4{fill:url(#linear-gradient-3);}</style><linearGradient id="linear-gradient" x1="71.84" y1="-335.72" x2="71.84" y2="-276.66" gradientTransform="matrix(1, 0, 0, -1, 0, -130.23)" gradientUnits="userSpaceOnUse"><stop offset="0" stop-color="#23bcee"/><stop offset="0.07" stop-color="#24b0e5"/><stop offset="0.36" stop-color="#2785c3"/><stop offset="0.63" stop-color="#2965aa"/><stop offset="0.85" stop-color="#2b529b"/><stop offset="1" stop-color="#2b4b96"/></linearGradient><linearGradient id="linear-gradient-2" x1="307.51" y1="-333.72" x2="307.51" y2="-278.24" gradientTransform="matrix(1, 0, 0, -1, 0, -130.23)" gradientUnits="userSpaceOnUse"><stop offset="0" stop-color="#09b2cf"/><stop offset="1" stop-color="#304e97"/></linearGradient><linearGradient id="linear-gradient-3" x1="181.63" y1="-335.72" x2="181.63" y2="-276.66" gradientTransform="matrix(1, 0, 0, -1, 0, -130.23)" gradientUnits="userSpaceOnUse"><stop offset="0" stop-color="#09b2cf"/><stop offset="0.2" stop-color="#178fbb"/><stop offset="0.4" stop-color="#2273ab"/><stop offset="0.6" stop-color="#2a5ea0"/><stop offset="0.8" stop-color="#2e5299"/><stop offset="1" stop-color="#304e97"/></linearGradient></defs><title>Asset 1</title><g id="Layer_2" data-name="Layer 2"><g id="Layer_1-2" data-name="Layer 1"><path class="cls-1" d="M0,0H401.5V401.5H0Z"/><g id="g3"><polygon id="polygon5" class="cls-2" points="18.65 146.43 18.65 150.6 121.25 150.6 121.25 173.69 18.65 173.69 18.65 205.49 22.81 205.49 22.81 177.85 125.03 177.85 125.03 146.43 18.65 146.43"/><polygon id="polygon7" class="cls-3" points="254.13 146.43 254.13 150.6 356.73 150.6 356.73 173.69 254.13 173.69 254.13 205.49 360.89 205.49 360.89 201.32 258.68 201.32 258.68 177.85 360.89 177.85 360.89 146.43 254.13 146.43"/><polygon id="polygon9" class="cls-4" points="179.55 146.43 179.55 201.32 125.03 201.32 125.03 205.49 184.09 205.49 184.09 150.6 238.23 150.6 238.23 146.43 179.55 146.43"/><polygon id="polygon11" points="371.87 199.43 369.97 199.43 369.97 198.68 375.28 198.68 375.28 199.43 373.01 199.43 373.01 205.49 371.87 205.49 371.87 199.43"/><polygon id="polygon13" points="377.55 198.68 379.44 204.35 381.34 198.68 382.85 198.68 382.85 205.49 382.09 205.49 382.09 199.81 380.2 205.49 379.06 205.49 377.17 199.81 377.17 205.49 376.03 205.49 376.03 198.68 377.55 198.68"/></g><g id="layer1"><path id="path3003" d="M105,226.28v20.81h3.25V228.28h3s2.18,0,2.93,1a6.08,6.08,0,0,1,.75,3.36,9,9,0,0,1-.45,3.38,2.42,2.42,0,0,1-2.28,1.13h-2V239h2.85s2.58.1,3.68-1c1.37-1.37,1.71-3.24,1.71-5.72,0-2.28-.82-4.55-2.49-5.31a11.85,11.85,0,0,0-3.89-.64H105"/><path id="path3005" d="M121,247.09h3.23V226.28H121v20.81Z"/><path id="path3007" d="M141.57,231.14l5.94,15.57-3.41,8.36h2.69l9.83-23.93h-3l-4.28,11.66-4-11.66h-3.78"/><path id="path3009" d="M159.07,247v-2s3.43.14,4.15.14a3.61,3.61,0,0,0,3-1,6.39,6.39,0,0,0,.68-2.68,8.38,8.38,0,0,0-.36-2.44,1.93,1.93,0,0,0-1.62-1.09c-.6,0-1.51-.17-2.58-.22a4.11,4.11,0,0,1-3-1.42c-.48-.56-1.11-1.4-1.11-4s.67-4.05,1.37-4.73a4.51,4.51,0,0,1,2.41-1.11,19.41,19.41,0,0,1,2.28-.16l4.55.13v2s-3.32-.13-4-.13a3,3,0,0,0-2.66,1,3.87,3.87,0,0,0-.62,2,7.85,7.85,0,0,0,.31,2.36,2,2,0,0,0,1.63,1.09c.58,0,1.5.16,2.57.21a4.14,4.14,0,0,1,3,1.41c.47.57,1.11,1.76,1.11,4.35s-.68,4.46-1.36,5.13a4.5,4.5,0,0,1-2.42,1.11,16.07,16.07,0,0,1-2.3.16l-5-.13"/><path id="path3011" d="M176.79,228.28h-3.24v15.27s.08,1.4.15,1.89a2.5,2.5,0,0,0,2.66,1.65l3.37-.06v-2s-.91.06-1.46.06-1.24,0-1.37-1a17.66,17.66,0,0,1-.12-2.06v-9h3.67v-2h-3.67v-2.86"/><path id="path3013" d="M208.14,247.09h3.25v-16h-3.25v16Z"/><path id="path3015" d="M208.14,229.18h3.25v-2.9h-3.25Z"/><path id="path3017" d="M221.65,231a8,8,0,0,1,4.85,1.24c.92.75,2.07,2.32,2.07,6.88s-1.14,6.13-2.07,6.87a10,10,0,0,1-9.7,0c-.93-.74-2.06-2.32-2.06-6.87s1.13-6.13,2.06-6.88A8,8,0,0,1,221.65,231Zm-2.23,3.06c-.46.55-1,1.71-1,5.06s.54,4.5,1,5a3.41,3.41,0,0,0,4.65,0c.46-.55,1-1.71,1-5s-.54-4.51-1-5.06a3.43,3.43,0,0,0-4.65,0"/><path id="path3019" d="M235.3,233.38l3.19-.13a2.92,2.92,0,0,1,2.27.82,3.53,3.53,0,0,1,.73,2.34v10.67h3.25V236.15a4.71,4.71,0,0,0-1.59-4,6.8,6.8,0,0,0-3.81-1l-7.28.13v15.81h3.22V233.38"/><path id="path3021" d="M201.66,228.28h-3.23v15.27s.07,1.4.15,1.89a2.49,2.49,0,0,0,2.66,1.65l3.37-.06v-2s-.91.06-1.47.06-1.23,0-1.37-1a20.15,20.15,0,0,1-.11-2.06v-9h3.64v-2h-3.64v-2.86"/><path id="path3023" d="M136.61,236.41a3.47,3.47,0,0,0-.72-2.34,3,3,0,0,0-2.28-.82l-4.28.13v-2.11l5.16-.13a6.72,6.72,0,0,1,3.8,1,4.75,4.75,0,0,1,1.58,4v10.78l-6.22.14a15.22,15.22,0,0,1-4.24-.57c-1.42-.56-2.14-2.1-2.14-4.25a4.75,4.75,0,0,1,1.59-4,6.72,6.72,0,0,1,3.8-1h2v1.82h-1.12a2.67,2.67,0,0,0-2.17.76,3,3,0,0,0-.68,2.14c0,1.43.28,2.07.95,2.56a5.11,5.11,0,0,0,2.85.53l2.15-.13v-8.51"/><path id="path3025" d="M191.39,236.41a3.58,3.58,0,0,0-.72-2.34,3,3,0,0,0-2.28-.82l-4.28.13v-2.11l5.15-.13a6.72,6.72,0,0,1,3.8,1,4.75,4.75,0,0,1,1.59,4v10.78l-6.23.14a15.22,15.22,0,0,1-4.24-.57c-1.41-.56-2.14-2.1-2.14-4.25a4.77,4.77,0,0,1,1.58-4,6.76,6.76,0,0,1,3.81-1h2v1.82H188.3a2.64,2.64,0,0,0-2.16.76,2.92,2.92,0,0,0-.69,2.14c0,1.43.28,2.07,1,2.56a5.13,5.13,0,0,0,2.86.53l2.13-.13v-8.51"/><path id="path3027" d="M250.64,247.22a3.19,3.19,0,1,0-2.24-.91A3.17,3.17,0,0,0,250.64,247.22ZM248,244a2.63,2.63,0,1,1,.77,1.87A2.6,2.6,0,0,1,248,244"/><path id="path3029" d="M252.19,245.53a.23.23,0,0,1-.1-.16,1.24,1.24,0,0,1,0-.27v-.45a.84.84,0,0,0-.13-.46.68.68,0,0,0-.21-.17.84.84,0,0,0,.27-.26,1,1,0,0,0,.13-.54.89.89,0,0,0-.51-.87,1.72,1.72,0,0,0-.67-.11H249.3v3.53h.62v-1.46h1a1,1,0,0,1,.38.05.41.41,0,0,1,.2.38l0,.56a1.31,1.31,0,0,0,0,.28.65.65,0,0,0,0,.13l0,0h.68v-.21h-.05Zm-.7-2.28a.46.46,0,0,1-.15.4.73.73,0,0,1-.45.12h-1v-1h1a1,1,0,0,1,.34.06.43.43,0,0,1,.21.42"/><path id="path3031" d="M273.88,229c.05,2.4-.07,3.64-.88,4.87-.71,1-2.11,2-5.22,2l-3.86-.12a4.55,4.55,0,0,0-2.93,1c-.64.69-.68,1.2-.76,3v5.38h13.12v2.65h-15A1.89,1.89,0,0,1,256.4,246V241.8c.07-4.7.41-5.37,1.43-6.6a6.37,6.37,0,0,1,4.38-1.9c.72-.05,1.45-.06,2.18,0l1.87.05c1.78,0,2.43-.31,2.92-.95a4.45,4.45,0,0,0,.85-3,5.21,5.21,0,0,0-.76-3.11,3.2,3.2,0,0,0-2.86-1.1c-4.23,0-9.18.1-9.18.1V222.8s4.84-.21,9.77-.28c3.07-.05,4.76.76,5.62,1.88s1.23,2.28,1.27,4.58"/></g></g></g></svg>