<svg xmlns="http://www.w3.org/2000/svg" viewBox="0 0 401.5 401.5"><defs><style>.cls-1{fill:none;}</style></defs><title>Asset 2</title><g id="Layer_2" data-name="Layer 2"><g id="Layer_1-2" data-name="Layer 1"><path class="cls-1" d="M0,0H401.5V401.5H0Z"/><path d="M391.42,206.94v-3.23h0l-1.23,3.23h-.56l-1.24-3.23h0v3.23h-.75V202.8h1.16l1.14,2.93L391,202.8h1.15v4.14Zm-5.93,0h-.8v-3.48h-1.27v-.66h3.34v.66h-1.27v3.48ZM359.66,195l-38,0-6.57,12.57h-8.64s26.94-51,28-52.75,4.15-7.25,9.11-7,7,4,8,5.65,28.76,54.08,28.76,54.08H366.45Zm-16.25-30.22c-1.2-2.42-3.93-3-5.41-.2-.61,1.17-12.23,23-12.23,23h30ZM294.73,155l0,52H282.41v-52l-23.47,0v-7.22l59.39,0,0,7.31Zm-31.91,88.51c1.67-.3,3.15-.12,3.15-1.48,0-1.19-1.24-1.42-2.17-1.42-1.3,0-2.21.53-2.31,1.67h-2.32c.16-2.7,2.46-3.49,4.77-3.49,2.05,0,4.2.83,4.2,3v5.4c0,.57.12.79.55.79a3.31,3.31,0,0,0,.57,0v1.6a6,6,0,0,1-1.46.27c-.94,0-1.61-.33-1.79-1.28a5.38,5.38,0,0,1-3.63,1.28c-1.89,0-3.59-1-3.59-3.07C258.79,244.17,260.88,243.75,262.82,243.52Zm.41,4.51c1,0,2.6-.53,2.6-2v-1.72a8.38,8.38,0,0,1-2.84.62c-1,.17-1.89.53-1.89,1.75C261.1,247.72,262.42,248,263.23,248Zm-10-1v-6.18h-1.75v-1.73h1.75v-3.15h2.31v3.15h2.09v1.73H255.5v5.6c0,1,.08,1.44,1.12,1.44a4,4,0,0,0,1-.08v1.78c-.51,0-1,.12-1.5.12C253.67,249.67,253.23,248.74,253.19,247Zm-14.86-98.86H250.9v59.23H238.33ZM240,246.55l3.71-11.47h2.58l-4.95,14.49h-2.82l-4.83-14.49h2.63L240,246.55Zm-9.56,3.17a3.34,3.34,0,0,1,0-6.67,3.34,3.34,0,0,1,0,6.67Zm0-6.09a2.59,2.59,0,0,0-2.57,2.76,2.57,2.57,0,1,0,2.57-2.76Zm.52,3,1,1.63h-.68l-1-1.58h-.57v1.58h-.61v-3.7h1.4c.9,0,1.35.32,1.35,1.06A.94.94,0,0,1,231,246.67Zm-.45-1.55h-.73v1.08h.68c.45,0,.86,0,.86-.58S230.88,245.12,230.51,245.12Zm-37.13-37.57c-4.95-.27-7-4-7.95-5.64s-28.71-54-28.71-54h13.82l23,42.69c1.2,2.41,3.93,3,5.4.19,1.2-2.27,22.87-42.88,22.87-42.88h8.63s-26.89,50.91-28,52.65S198.33,207.81,193.38,207.55Zm-33.92,31.53-4.08,11.06c-.75,1.89-1.3,3.59-3.72,3.59a10.67,10.67,0,0,1-1.6-.12v-2a6.9,6.9,0,0,0,1.1.14c1.07,0,1.34-.56,1.62-1.46l.26-.81-4-10.45h2.53l2.74,7.83h0l2.66-7.83Zm-38.47-75v27.12c0,9.91-4.46,16.1-16.83,16.1H77.58V200h23.19c4.74,0,7.58-3.85,7.58-8.76V164.11c0-8.64,4.2-16.1,16.48-16.1h26.4v7.33H128.39C122.22,155.08,121,160.13,121,164.11ZM68.82,180.89H40.38c-3.9,0-6.78,3-6.78,8.05v18.47H21.33V189.62c0-10,6.27-16.74,15.16-16.74H65.26c7.06-.27,8.74-3.77,8.74-8.85,0-3.9-2-9.22-8.74-8.69H21.33V148H68.82c12.46,0,17.37,7.2,17.37,16C86.19,174,81.28,180.89,68.82,180.89Zm63,58.68c0,1.78-.79,4.46-4.93,4.44h-3.86v5.56h-2.53V235.08h6.39C131.07,235.08,131.86,237.76,131.86,239.57Zm-8.79-2.42v4.79h3.72a2.31,2.31,0,0,0,2.53-2.39c0-1.91-1.15-2.4-2.49-2.4Zm13.15,12.42h-2.31V235.08h2.31Zm6.09-6c1.66-.3,3.14-.12,3.14-1.48,0-1.19-1.23-1.42-2.17-1.42-1.3,0-2.21.53-2.31,1.67h-2.31c.16-2.7,2.45-3.49,4.76-3.49,2.05,0,4.21.83,4.21,3v5.4c0,.57.12.79.54.79a3.2,3.2,0,0,0,.57,0v1.6a5.8,5.8,0,0,1-1.46.27c-.93,0-1.6-.33-1.78-1.28a5.42,5.42,0,0,1-3.64,1.28c-1.88,0-3.59-1-3.59-3.07C138.27,244.17,140.36,243.75,142.31,243.52Zm.41,4.51c1,0,2.59-.53,2.59-2v-1.72a8.32,8.32,0,0,1-2.84.62c-1,.17-1.89.53-1.89,1.75C140.58,247.72,141.9,248,142.72,248Zm23.8-.18c2.23,0,3.06-1.1,3.06-2.19a1.72,1.72,0,0,0-1.2-1.79c-1-.39-2.33-.65-4.32-1.2-2.47-.67-3.2-2.17-3.2-3.67,0-2.9,2.67-4.26,5.29-4.26,3,0,5.56,1.6,5.56,4.62h-2.53c-.13-1.86-1.38-2.55-3.13-2.55-1.18,0-2.66.42-2.66,1.88,0,1,.69,1.59,1.73,1.87.22.06,3.43.89,4.18,1.12a3.84,3.84,0,0,1,2.82,3.69c0,3.25-2.88,4.55-5.77,4.55-3.3,0-6-1.59-6-5.18h2.53C162.84,247,164.49,247.85,166.52,247.85Zm8.28-11.92h2.31v3.15h2.09v1.73h-2.09v5.6c0,1,.08,1.44,1.12,1.44a4,4,0,0,0,1-.08v1.78c-.51,0-1,.12-1.5.12-2.42,0-2.86-.93-2.9-2.68V240.8h-1.75v-1.72h1.75v-3.15Zm9.63,7.59c1.67-.3,3.15-.12,3.15-1.48,0-1.19-1.24-1.42-2.17-1.42-1.3,0-2.21.53-2.31,1.67h-2.32c.16-2.7,2.46-3.49,4.77-3.49,2,0,4.2.83,4.2,3v5.4c0,.57.12.79.55.79a3.31,3.31,0,0,0,.57,0v1.6a6,6,0,0,1-1.46.27c-.94,0-1.61-.33-1.79-1.28a5.38,5.38,0,0,1-3.63,1.28c-1.89,0-3.59-1-3.59-3.07C180.4,244.17,182.49,243.75,184.43,243.52Zm.41,4.51c1,0,2.6-.53,2.6-2v-1.72a8.38,8.38,0,0,1-2.84.62c-1,.17-1.89.53-1.89,1.75C182.71,247.72,184,248,184.84,248Zm8.2-12.1h2.31v3.15h2.09v1.73h-2.09v5.6c0,1,.08,1.44,1.12,1.44a4,4,0,0,0,1-.08v1.78c-.51,0-1,.12-1.5.12-2.41,0-2.86-.93-2.9-2.68V240.8h-1.75v-1.72H193Zm8.54,1.34h-2.31v-2.19h2.31Zm0,12.3h-2.31V239.08h2.31ZM209,238.8c3.37,0,5.29,2.31,5.29,5.52s-1.92,5.54-5.29,5.54-5.3-2.32-5.3-5.54S205.64,238.8,209,238.8Zm0,9.23c2.07,0,3-1.89,3-3.71s-.91-3.7-3-3.7-3,1.89-3,3.7S206.94,248,209,248Zm9.51-7.41,0,0a3.77,3.77,0,0,1,3.27-1.86c2.27,0,3.72,1.21,3.72,3.57v7.2h-2.32V243c0-1.65-.69-2.36-2-2.36a2.56,2.56,0,0,0-2.53,2.76v6.19h-2.32V239.08h2.19v1.54Zm31.36-3.35h-2.31v-2.19h2.31Zm0,12.3h-2.31V239.08h2.31Z"/></g></g></svg>